<?xml version="1.0" standalone="no"?>
<!DOCTYPE svg PUBLIC "-//W3C//DTD SVG 20010904//EN"
 "http://www.w3.org/TR/2001/REC-SVG-20010904/DTD/svg10.dtd">
<svg version="1.0" xmlns="http://www.w3.org/2000/svg"
 width="661.000000pt" height="265.000000pt" viewBox="0 0 661.000000 265.000000"
 preserveAspectRatio="xMidYMid meet">
<metadata>
Created by potrace 1.16, written by Peter Selinger 2001-2019
</metadata>
<g transform="translate(0.000000,265.000000) scale(0.100000,-0.100000)"
fill="#000000" stroke="none">
<path d="M0 1325 l0 -1325 3305 0 3305 0 0 1325 0 1325 -3305 0 -3305 0 0
-1325z m806 369 c121 -49 175 -127 182 -262 8 -141 -32 -226 -132 -282 l-54
-31 23 -52 c13 -29 57 -126 99 -216 42 -90 76 -170 76 -177 0 -11 -23 -14
-104 -14 l-103 0 -99 215 -99 215 -57 0 -58 0 0 -215 0 -215 -100 0 -100 0 0
310 0 310 188 0 c103 0 205 5 227 10 123 28 128 196 7 230 -20 5 -124 10 -229
10 l-193 0 0 96 0 96 238 -4 c212 -3 242 -6 288 -24z m1044 -68 l0 -93 -172
-6 c-193 -6 -244 -17 -320 -72 -69 -50 -101 -123 -106 -241 -6 -127 15 -191
83 -260 60 -61 128 -90 239 -100 l76 -7 0 137 0 136 -105 0 -105 0 0 100 0
100 205 0 205 0 0 -331 0 -332 -182 6 c-201 6 -272 19 -374 68 -115 54 -189
147 -230 284 -23 81 -24 257 -1 344 44 163 158 276 331 326 93 27 142 33 304
34 l152 1 0 -94z m1007 -432 c111 -285 202 -522 203 -526 0 -5 -46 -8 -103 -8
l-103 0 -104 295 c-58 161 -107 292 -110 289 -3 -3 -50 -134 -106 -292 l-101
-287 -101 -3 c-79 -2 -102 0 -102 10 0 12 137 370 336 881 39 99 71 166 77
164 7 -2 103 -237 214 -523z m687 177 l241 -344 3 347 2 346 100 0 100 0 0
-530 0 -530 -98 0 -98 0 -245 350 -244 351 -3 -226 -2 -225 -100 0 -100 0 0
405 0 406 102 -3 101 -3 241 -344z m816 -91 l0 -440 60 0 60 0 0 -90 0 -90
-220 0 -220 0 0 90 0 90 60 0 60 0 0 440 0 440 100 0 100 0 0 -440z m536 55
c103 -209 189 -383 193 -387 3 -4 87 167 186 380 l181 387 102 3 102 3 0 -401
0 -400 -100 0 -100 0 -2 163 -3 162 -138 -272 -137 -273 -85 0 -85 0 -23 38
c-13 20 -79 146 -148 279 l-124 242 -3 -299 -2 -300 -100 0 -100 0 0 530 0
531 101 -3 100 -3 185 -380z m1324 290 l0 -95 -150 0 -150 0 0 -120 0 -120
215 0 215 0 0 -95 0 -95 -215 0 -215 0 0 -120 0 -120 150 0 150 0 0 -100 0
-100 -250 0 -250 0 0 530 0 530 250 0 250 0 0 -95z"/>
</g>
</svg>
